# This file uses centimeters as units for non-parametric coordinates.

mtllib Interruptor-cuerpo.mtl
g default
v 0.148047 -0.345377 0.272176
v 0.148047 0.376045 0.272176
v 0.148047 0.376045 -0.218780
v 0.148047 -0.345377 -0.218780
v -0.120337 0.241867 0.272176
v 0.013841 0.376045 0.272176
v -0.120337 0.241867 -0.218780
v 0.013841 0.376045 -0.218780
v 0.013841 -0.345377 0.272176
v -0.120337 -0.211199 0.272176
v -0.120337 -0.211199 -0.218780
v 0.013841 -0.345377 -0.218780
vt 0.625000 0.000000
vt 0.875000 0.000000
vt 0.875000 0.250000
vt 0.375000 0.046498
vt 0.499987 0.000000
vt 0.625000 0.250000
vt 0.625000 0.750000
vt 0.375000 0.703502
vt 0.499987 0.500000
vt 0.625000 0.500000
vt 0.499987 1.000000
vt 0.625000 1.000000
vt 0.125000 0.046498
vt 0.375000 0.203502
vt 0.125000 0.203502
vt 0.499988 0.250000
vt 0.375000 0.546498
vt 0.375000 1.000000
vt 0.499988 0.750000
vn 0.000000 1.000000 0.000000
vn 0.000000 1.000000 0.000000
vn 0.000000 1.000000 0.000000
vn 0.000000 1.000000 0.000000
vn 0.000000 -1.000000 0.000000
vn 0.000000 -1.000000 0.000000
vn 0.000000 -1.000000 0.000000
vn 0.000000 -1.000000 0.000000
vn 1.000000 0.000000 0.000000
vn 1.000000 0.000000 0.000000
vn 1.000000 0.000000 0.000000
vn 1.000000 0.000000 0.000000
vn -1.000000 0.000000 0.000000
vn -1.000000 0.000000 0.000000
vn -1.000000 0.000000 0.000000
vn -1.000000 0.000000 0.000000
vn 0.000000 0.000000 -1.000000
vn 0.000000 0.000000 -1.000000
vn 0.000000 0.000000 -1.000000
vn 0.000000 0.000000 -1.000000
vn 0.000000 0.000000 -1.000000
vn 0.000000 0.000000 -1.000000
vn 0.000000 0.000000 1.000000
vn 0.000000 0.000000 1.000000
vn 0.000000 0.000000 1.000000
vn 0.000000 0.000000 1.000000
vn 0.000000 0.000000 1.000000
vn 0.000000 0.000000 1.000000
vn -0.707106 0.707107 0.000000
vn -0.707106 0.707107 0.000000
vn -0.707106 0.707107 0.000000
vn -0.707106 0.707107 0.000000
vn -0.707106 -0.707108 0.000000
vn -0.707106 -0.707108 0.000000
vn -0.707106 -0.707108 0.000000
vn -0.707106 -0.707108 0.000000
s off
g pCube2
usemtl lambert5SG
f 8/9/1 6/16/2 2/6/3 3/10/4
f 9/11/5 12/19/6 4/7/7 1/12/8
f 1/1/9 4/2/10 3/3/11 2/6/12
f 11/13/13 10/4/14 5/14/15 7/15/16
f 7/17/17 8/9/18 3/10/19 4/7/20 12/19/21 11/8/22
f 10/4/23 9/5/24 1/1/25 2/6/26 6/16/27 5/14/28
f 5/14/29 6/16/30 8/9/31 7/17/32
f 9/11/33 10/18/34 11/8/35 12/19/36
g default
v -0.143567 -0.127728 0.214396
v -0.117444 -0.127728 0.214396
v -0.143567 0.133062 0.214396
v -0.117444 0.133062 0.214396
v -0.143567 0.133062 -0.161000
v -0.117444 0.133062 -0.161000
v -0.143567 -0.127728 -0.161000
v -0.117444 -0.127728 -0.161000
vt 0.375000 0.000000
vt 0.625000 0.000000
vt 0.375000 0.250000
vt 0.625000 0.250000
vt 0.375000 0.500000
vt 0.625000 0.500000
vt 0.375000 0.750000
vt 0.625000 0.750000
vt 0.375000 1.000000
vt 0.625000 1.000000
vt 0.875000 0.000000
vt 0.875000 0.250000
vt 0.125000 0.000000
vt 0.125000 0.250000
vn 0.000000 0.000000 1.000000
vn 0.000000 0.000000 1.000000
vn 0.000000 0.000000 1.000000
vn 0.000000 0.000000 1.000000
vn 0.000000 1.000000 0.000000
vn 0.000000 1.000000 0.000000
vn 0.000000 1.000000 0.000000
vn 0.000000 1.000000 0.000000
vn 0.000000 0.000000 -1.000000
vn 0.000000 0.000000 -1.000000
vn 0.000000 0.000000 -1.000000
vn 0.000000 0.000000 -1.000000
vn 0.000000 -1.000000 0.000000
vn 0.000000 -1.000000 0.000000
vn 0.000000 -1.000000 0.000000
vn 0.000000 -1.000000 0.000000
vn 1.000000 0.000000 0.000000
vn 1.000000 0.000000 0.000000
vn 1.000000 0.000000 0.000000
vn 1.000000 0.000000 0.000000
vn -1.000000 0.000000 0.000000
vn -1.000000 0.000000 0.000000
vn -1.000000 0.000000 0.000000
vn -1.000000 0.000000 0.000000
s off
g pCube3
usemtl lambert6SG
f 13/20/37 14/21/38 16/23/39 15/22/40
f 15/22/41 16/23/42 18/25/43 17/24/44
f 17/24/45 18/25/46 20/27/47 19/26/48
f 19/26/49 20/27/50 14/29/51 13/28/52
f 14/21/53 20/30/54 18/31/55 16/23/56
f 19/32/57 13/20/58 15/22/59 17/33/60
