# This file uses centimeters as units for non-parametric coordinates.

mtllib cofre.mtl
g default
v 0.876194 0.896326 -1.870590
v -0.916353 0.896326 -1.851249
v 0.876194 -0.896326 -1.870590
v -0.916353 -0.896326 -1.851249
v 0.916353 -0.896326 1.851249
v -0.876194 -0.896326 1.870590
v 0.916353 0.896326 1.851249
v -0.876194 0.896326 1.870590
v -0.881135 0.893067 1.867511
v 0.493003 2.020414 1.864840
v -1.515399 1.666183 1.868744
v -0.141260 2.793530 1.866073
v -1.522700 1.666183 -1.887783
v -0.148561 2.793530 -1.890454
v -0.888436 0.893067 -1.889015
v 0.485703 2.020414 -1.891687
vt 0.375000 0.250000
vt 0.625000 0.250000
vt 0.375000 0.500000
vt 0.625000 0.500000
vt 0.375000 0.750000
vt 0.625000 0.750000
vt 0.375000 1.000000
vt 0.625000 1.000000
vt 0.001992 0.998008
vt 0.998008 0.998008
vt 0.998008 0.001992
vt 0.001992 0.001992
vt 0.001992 0.998008
vt 0.998008 0.998008
vt 0.998008 0.001992
vt 0.001992 0.001992
vt 0.998008 0.001992
vt 0.001992 0.001992
vt 0.001992 0.998008
vt 0.998008 0.998008
vt 0.001992 0.998008
vt 0.998008 0.998008
vt 0.998008 0.001992
vt 0.001992 0.001992
vt 0.001992 0.001992
vt 0.998008 0.001992
vt 0.998008 0.998008
vt 0.001992 0.998008
vt 0.001992 0.998008
vt 0.001992 0.001992
vt 0.998008 0.001992
vt 0.998008 0.998008
vt 1.000000 1.000000
vt 0.000000 1.000000
vt 0.000000 0.000000
vt 1.000000 0.000000
vt 0.375000 0.750000
vt 0.625000 0.750000
vt 0.625000 1.000000
vt 0.375000 1.000000
vt 0.001992 0.001992
vt 0.998008 0.001992
vt 0.998008 0.998008
vt 0.001992 0.998008
vt 0.001992 0.001992
vt 0.998007 0.001992
vt 0.998007 0.998008
vt 0.001992 0.998007
vn -0.010789 0.000000 -0.999942
vn -0.010789 0.000000 -0.999942
vn -0.010789 0.000000 -0.999942
vn -0.010790 0.000000 -0.999942
vn -0.000000 -1.000000 0.000000
vn -0.000000 -1.000000 -0.000000
vn -0.000000 -1.000000 0.000000
vn -0.000000 -1.000000 -0.000000
vn 0.010790 -0.000000 0.999942
vn 0.010789 -0.000000 0.999942
vn 0.010789 -0.000000 0.999942
vn 0.010789 0.000000 0.999942
vn 0.000000 1.000000 0.000000
vn -0.000000 1.000000 0.000000
vn -0.000000 1.000000 0.000000
vn -0.000000 1.000000 0.000000
vn -0.999942 0.000000 0.010789
vn -0.999942 0.000000 0.010789
vn -0.999942 0.000000 0.010789
vn -0.999942 0.000000 0.010789
vn 0.999942 0.000000 -0.010789
vn 0.999942 -0.000000 -0.010789
vn 0.999942 -0.000000 -0.010789
vn 0.999942 -0.000000 -0.010789
vn 0.001944 -0.000000 0.999998
vn 0.001944 0.000000 0.999998
vn 0.001944 -0.000000 0.999998
vn 0.001944 0.000000 0.999998
vn -0.634264 0.773116 0.001233
vn -0.634264 0.773116 0.001233
vn -0.634264 0.773116 0.001233
vn -0.634264 0.773116 0.001233
vn -0.001944 -0.000000 -0.999998
vn -0.001944 -0.000000 -0.999998
vn -0.001944 -0.000000 -0.999998
vn -0.001944 -0.000000 -0.999998
vn 0.634264 -0.773116 -0.001233
vn 0.634264 -0.773116 -0.001233
vn 0.634264 -0.773116 -0.001233
vn 0.634264 -0.773116 -0.001233
vn 0.773114 0.634265 -0.001502
vn 0.773114 0.634265 -0.001503
vn 0.773114 0.634265 -0.001502
vn 0.773114 0.634265 -0.001503
vn -0.773114 -0.634265 0.001503
vn -0.773114 -0.634266 0.001503
vn -0.773114 -0.634265 0.001503
vn -0.773114 -0.634266 0.001503
s 1
g pCube3
usemtl lambert5SG
f 1/13/1 3/16/2 2/14/3
f 2/14/3 3/16/2 4/15/4
s 2
usemtl initialShadingGroup
f 3/1/5 5/3/6 4/2/7
f 4/2/7 5/3/6 6/4/8
s 3
usemtl lambert5SG
f 5/17/9 7/20/10 6/18/11
f 6/18/11 7/20/10 8/19/12
s 4
usemtl lambert3SG
f 7/5/13 1/7/14 8/6/15
f 8/6/15 1/7/14 2/8/16
s 5
usemtl lambert5SG
f 2/21/17 4/24/18 8/22/19
f 8/22/19 4/24/18 6/23/20
s 6
f 7/9/21 5/12/22 1/10/23
f 1/10/23 5/12/22 3/11/24
s 7
usemtl lambert7SG
f 9/25/25 10/26/26 11/28/27
f 11/28/27 10/26/26 12/27/28
s 8
usemtl lambert5SG
f 11/29/29 12/30/30 13/32/31
f 13/32/31 12/30/30 14/31/32
s 9
usemtl lambert8SG
f 13/33/33 14/34/34 15/36/35
f 15/36/35 14/34/34 16/35/36
s 10
usemtl lambert2SG
f 15/37/37 16/38/38 9/40/39
f 9/40/39 16/38/38 10/39/40
s 11
usemtl lambert6SG
f 10/41/41 16/42/42 12/44/43
f 12/44/43 16/42/42 14/43/44
s 12
usemtl lambert7SG
f 15/45/45 9/46/46 13/48/47
f 13/48/47 9/46/46 11/47/48
g default
v 0.876194 0.896326 -1.870590
v -0.916353 0.896326 -1.851249
v 0.876194 -0.896326 -1.870590
v -0.916353 -0.896326 -1.851249
v 0.916353 -0.896326 1.851249
v -0.876194 -0.896326 1.870590
v 0.916353 0.896326 1.851249
v -0.876194 0.896326 1.870590
v -0.881135 0.893067 1.867511
v 0.493003 2.020414 1.864840
v -1.515399 1.666183 1.868744
v -0.141260 2.793530 1.866073
v -1.522700 1.666183 -1.887783
v -0.148561 2.793530 -1.890454
v -0.888436 0.893067 -1.889015
v 0.485703 2.020414 -1.891687
vt 0.375000 0.250000
vt 0.625000 0.250000
vt 0.375000 0.500000
vt 0.625000 0.500000
vt 0.375000 0.750000
vt 0.625000 0.750000
vt 0.375000 1.000000
vt 0.625000 1.000000
vt 0.001992 0.998008
vt 0.998008 0.998008
vt 0.998008 0.001992
vt 0.001992 0.001992
vt 0.001992 0.998008
vt 0.998008 0.998008
vt 0.998008 0.001992
vt 0.001992 0.001992
vt 0.998008 0.001992
vt 0.001992 0.001992
vt 0.001992 0.998008
vt 0.998008 0.998008
vt 0.001992 0.998008
vt 0.998008 0.998008
vt 0.998008 0.001992
vt 0.001992 0.001992
vt 0.001992 0.001992
vt 0.998008 0.001992
vt 0.998008 0.998008
vt 0.001992 0.998008
vt 0.001992 0.998008
vt 0.001992 0.001992
vt 0.998008 0.001992
vt 0.998008 0.998008
vt 1.000000 1.000000
vt 0.000000 1.000000
vt 0.000000 0.000000
vt 1.000000 0.000000
vt 0.375000 0.750000
vt 0.625000 0.750000
vt 0.625000 1.000000
vt 0.375000 1.000000
vt 0.001992 0.001992
vt 0.998008 0.001992
vt 0.998008 0.998008
vt 0.001992 0.998008
vt 0.001992 0.001992
vt 0.998007 0.001992
vt 0.998007 0.998008
vt 0.001992 0.998007
vn -0.010789 0.000000 -0.999942
vn -0.010789 0.000000 -0.999942
vn -0.010789 0.000000 -0.999942
vn -0.010790 0.000000 -0.999942
vn -0.000000 -1.000000 0.000000
vn -0.000000 -1.000000 -0.000000
vn -0.000000 -1.000000 0.000000
vn -0.000000 -1.000000 -0.000000
vn 0.010790 -0.000000 0.999942
vn 0.010789 -0.000000 0.999942
vn 0.010789 -0.000000 0.999942
vn 0.010789 0.000000 0.999942
vn 0.000000 1.000000 0.000000
vn -0.000000 1.000000 0.000000
vn -0.000000 1.000000 0.000000
vn -0.000000 1.000000 0.000000
vn -0.999942 0.000000 0.010789
vn -0.999942 0.000000 0.010789
vn -0.999942 0.000000 0.010789
vn -0.999942 0.000000 0.010789
vn 0.999942 0.000000 -0.010789
vn 0.999942 -0.000000 -0.010789
vn 0.999942 -0.000000 -0.010789
vn 0.999942 -0.000000 -0.010789
vn 0.001944 -0.000000 0.999998
vn 0.001944 0.000000 0.999998
vn 0.001944 -0.000000 0.999998
vn 0.001944 0.000000 0.999998
vn -0.634264 0.773116 0.001233
vn -0.634264 0.773116 0.001233
vn -0.634264 0.773116 0.001233
vn -0.634264 0.773116 0.001233
vn -0.001944 -0.000000 -0.999998
vn -0.001944 -0.000000 -0.999998
vn -0.001944 -0.000000 -0.999998
vn -0.001944 -0.000000 -0.999998
vn 0.634264 -0.773116 -0.001233
vn 0.634264 -0.773116 -0.001233
vn 0.634264 -0.773116 -0.001233
vn 0.634264 -0.773116 -0.001233
vn 0.773114 0.634265 -0.001502
vn 0.773114 0.634265 -0.001503
vn 0.773114 0.634265 -0.001502
vn 0.773114 0.634265 -0.001503
vn -0.773114 -0.634265 0.001503
vn -0.773114 -0.634266 0.001503
vn -0.773114 -0.634265 0.001503
vn -0.773114 -0.634266 0.001503
s 1
g pCube3
f 17/61/49 19/64/50 18/62/51
f 18/62/51 19/64/50 20/63/52
s 2
f 19/49/53 21/51/54 20/50/55
f 20/50/55 21/51/54 22/52/56
s 3
f 21/65/57 23/68/58 22/66/59
f 22/66/59 23/68/58 24/67/60
s 4
f 23/53/61 17/55/62 24/54/63
f 24/54/63 17/55/62 18/56/64
s 5
f 18/69/65 20/72/66 24/70/67
f 24/70/67 20/72/66 22/71/68
s 6
f 23/57/69 21/60/70 17/58/71
f 17/58/71 21/60/70 19/59/72
s 7
f 25/73/73 26/74/74 27/76/75
f 27/76/75 26/74/74 28/75/76
s 8
f 27/77/77 28/78/78 29/80/79
f 29/80/79 28/78/78 30/79/80
s 9
f 29/81/81 30/82/82 31/84/83
f 31/84/83 30/82/82 32/83/84
s 10
f 31/85/85 32/86/86 25/88/87
f 25/88/87 32/86/86 26/87/88
s 11
f 26/89/89 32/90/90 28/92/91
f 28/92/91 32/90/90 30/91/92
s 12
f 31/93/93 25/94/94 29/96/95
f 29/96/95 25/94/94 27/95/96
